<?xml version="1.0" encoding="UTF-8" standalone="no"?>
<svg aria-label="The LLM benchmark landscape organized by capability domain." role="img" style="font-family: sans-serif;" viewbox="0 -10 750 330" xmlns="http://www.w3.org/2000/svg"><defs><filter height="116%" id="stdShadow2" width="108%" x="-4%" y="-4%"><fedropshadow dx="1" dy="2" flood-opacity="0.08" stddeviation="2"></fedropshadow></filter><lineargradient id="stdGrad1" x1="0%" x2="0%" y1="0%" y2="100%"><stop offset="0%" style="stop-color:#f8f9fa;stop-opacity:0.7"></stop><stop offset="100%" style="stop-color:#e9ecef;stop-opacity:0.3"></stop></lineargradient></defs>
<!-- Knowledge -->
<rect fill="#e8f4fd" height="250" rx="10" stroke="#3498db" stroke-linecap="round" stroke-width="1.5" width="170" x="20" y="50"></rect>
<text fill="#2980b9" font-size="12" font-weight="700" text-anchor="middle" x="105" y="75">Knowledge</text>
<rect fill="white" height="32" rx="6" stroke="#3498db" stroke-linecap="round" stroke-width="1" width="140" x="35" y="90"></rect>
<text fill="#333" font-size="11" text-anchor="middle" x="105" y="111">MMLU (57 subjects)</text>
<rect fill="white" height="32" rx="6" stroke="#3498db" stroke-linecap="round" stroke-width="1" width="140" x="35" y="132"></rect>
<text fill="#333" font-size="11" text-anchor="middle" x="105" y="153">MMLU-Pro (harder)</text>
<rect fill="white" height="32" rx="6" stroke="#3498db" stroke-linecap="round" stroke-width="1" width="140" x="35" y="174"></rect>
<text fill="#333" font-size="11" text-anchor="middle" x="105" y="195">ARC (science QA)</text>
<rect fill="white" height="32" rx="6" stroke="#3498db" stroke-linecap="round" stroke-width="1" width="140" x="35" y="216"></rect>
<text fill="#333" font-size="11" text-anchor="middle" x="105" y="237">TriviaQA</text>
<!-- Reasoning -->
<rect fill="#f0e6ff" height="250" rx="10" stroke="#8e44ad" stroke-linecap="round" stroke-width="1.5" width="170" x="210" y="50"></rect>
<text fill="#8e44ad" font-size="12" font-weight="700" text-anchor="middle" x="295" y="75">Reasoning</text>
<rect fill="white" height="32" rx="6" stroke="#8e44ad" stroke-linecap="round" stroke-width="1" width="140" x="225" y="90"></rect>
<text fill="#333" font-size="11" text-anchor="middle" x="295" y="111">GSM8K (math)</text>
<rect fill="white" height="32" rx="6" stroke="#8e44ad" stroke-linecap="round" stroke-width="1" width="140" x="225" y="132"></rect>
<text fill="#333" font-size="11" text-anchor="middle" x="295" y="153">MATH (competition)</text>
<rect fill="white" height="32" rx="6" stroke="#8e44ad" stroke-linecap="round" stroke-width="1" width="140" x="225" y="174"></rect>
<text fill="#333" font-size="11" text-anchor="middle" x="295" y="195">BBH (BIG-Bench)</text>
<rect fill="white" height="32" rx="6" stroke="#8e44ad" stroke-linecap="round" stroke-width="1" width="140" x="225" y="216"></rect>
<text fill="#333" font-size="11" text-anchor="middle" x="295" y="237">HellaSwag</text>
<!-- Code -->
<rect fill="#fef9e7" height="250" rx="10" stroke="#f39c12" stroke-linecap="round" stroke-width="1.5" width="170" x="400" y="50"></rect>
<text fill="#e67e22" font-size="12" font-weight="700" text-anchor="middle" x="485" y="75">Code</text>
<rect fill="white" height="32" rx="6" stroke="#f39c12" stroke-linecap="round" stroke-width="1" width="140" x="415" y="90"></rect>
<text fill="#333" font-size="11" text-anchor="middle" x="485" y="111">HumanEval (Python)</text>
<rect fill="white" height="32" rx="6" stroke="#f39c12" stroke-linecap="round" stroke-width="1" width="140" x="415" y="132"></rect>
<text fill="#333" font-size="11" text-anchor="middle" x="485" y="153">MBPP (basic)</text>
<rect fill="white" height="32" rx="6" stroke="#f39c12" stroke-linecap="round" stroke-width="1" width="140" x="415" y="174"></rect>
<text fill="#333" font-size="11" text-anchor="middle" x="485" y="195">SWE-Bench (repos)</text>
<rect fill="white" height="32" rx="6" stroke="#f39c12" stroke-linecap="round" stroke-width="1" width="140" x="415" y="216"></rect>
<text fill="#333" font-size="11" text-anchor="middle" x="485" y="237">LiveCodeBench</text>
<!-- Chat / Instruction -->
<rect fill="#e8f5e9" height="250" rx="10" stroke="#27ae60" stroke-linecap="round" stroke-width="1.5" width="150" x="590" y="50"></rect>
<text fill="#27ae60" font-size="12" font-weight="700" text-anchor="middle" x="665" y="75">Chat Quality</text>
<rect fill="white" height="32" rx="6" stroke="#27ae60" stroke-linecap="round" stroke-width="1" width="130" x="600" y="90"></rect>
<text fill="#333" font-size="11" text-anchor="middle" x="665" y="111">MT-Bench</text>
<rect fill="white" height="32" rx="6" stroke="#27ae60" stroke-linecap="round" stroke-width="1" width="130" x="600" y="132"></rect>
<text fill="#333" font-size="11" text-anchor="middle" x="665" y="153">Chatbot Arena</text>
<rect fill="white" height="32" rx="6" stroke="#27ae60" stroke-linecap="round" stroke-width="1" width="130" x="600" y="174"></rect>
<text fill="#333" font-size="11" text-anchor="middle" x="665" y="195">AlpacaEval</text>
<rect fill="white" height="32" rx="6" stroke="#27ae60" stroke-linecap="round" stroke-width="1" width="130" x="600" y="216"></rect>
<text fill="#333" font-size="11" text-anchor="middle" x="665" y="237">WildBench</text>
</svg>